<svg width="24" height="24" viewBox="0 0 24 24" fill="none" xmlns="http://www.w3.org/2000/svg">
<path d="M11.9963 16.35C11.4396 16.35 10.9646 16.1521 10.5713 15.7563C10.1779 15.3604 9.98125 14.8842 9.98125 14.3275C9.98125 13.7708 10.1792 13.2958 10.575 12.9025C10.9708 12.5092 11.4475 12.3125 12.005 12.3125C12.5625 12.3125 13.0375 12.5108 13.43 12.9075C13.8225 13.3042 14.0192 13.7804 14.02 14.3363C14.0208 14.8921 13.8225 15.3671 13.425 15.7612C13.0275 16.1554 12.5512 16.3521 11.9963 16.3512M7.46875 6.6875H16.5312L18.125 3.45125C18.3017 3.11542 18.2942 2.78958 18.1025 2.47375C17.9108 2.15792 17.6233 2 17.24 2H6.76C6.37667 2 6.08917 2.15792 5.8975 2.47375C5.70583 2.78958 5.69833 3.11583 5.875 3.4525L7.46875 6.6875ZM7.78875 22H16.2113C17.8196 22 19.1863 21.4371 20.3113 20.3113C21.4371 19.1854 22 17.8162 22 16.2037C22 15.5304 21.8846 14.8746 21.6537 14.2362C21.4229 13.5979 21.0896 13.0167 20.6538 12.4925L16.8512 7.9375H7.14875L3.34625 12.4925C2.91042 13.0167 2.57708 13.5979 2.34625 14.2362C2.11542 14.8737 2 15.5296 2 16.2037C2 17.8162 2.56292 19.1854 3.68875 20.3113C4.81458 21.4371 6.18125 22 7.78875 22Z" fill="#3DB305"/>
</svg>
