<svg width="24" height="24" viewBox="0 0 24 24" fill="none" xmlns="http://www.w3.org/2000/svg">
<path d="M10.0476 3.00615C10.4848 2.95463 10.9253 3.07011 11.2809 3.32948C11.6366 3.58885 11.8811 3.97297 11.9657 4.40496L11.9887 4.55844L11.9933 4.65402V11.0875C11.9933 11.3126 12.0759 11.5298 12.2255 11.698C12.3751 11.8663 12.5812 11.9737 12.8048 12.0001L12.9123 12.0065H19.1619C19.6494 12.0065 20.117 12.2002 20.4617 12.5449C20.8064 12.8896 21.0001 13.3571 21.0001 13.8446C21 13.9146 20.992 13.9842 20.9762 14.0523C20.6084 15.6392 19.8254 17.0999 18.7074 18.2847C17.5895 19.4695 16.1767 20.3358 14.6138 20.7951C13.0509 21.2543 11.394 21.2899 9.81286 20.8982C8.23169 20.5064 6.78303 19.7015 5.61525 18.5658C4.44747 17.4301 3.60252 16.0044 3.16694 14.4348C2.73136 12.8651 2.72079 11.2079 3.13632 9.6328C3.55185 8.05772 4.37855 6.62138 5.53176 5.47087C6.68496 4.32036 8.12323 3.49703 9.69928 3.08519L9.94743 3.02361L10.0476 3.00615Z" fill="#EE9322"/>
<path d="M13.8313 4.19452V9.24935C13.8313 9.4931 13.9281 9.72687 14.1005 9.89923C14.2728 10.0716 14.5066 10.1684 14.7504 10.1684H19.8052C19.9521 10.1684 20.0968 10.1331 20.2273 10.0656C20.3578 9.9981 20.4702 9.9003 20.555 9.7804C20.6399 9.6605 20.6948 9.52201 20.7152 9.37652C20.7355 9.23103 20.7206 9.08279 20.6719 8.94423C20.2154 7.64774 19.474 6.47014 18.5021 5.49815C17.5303 4.52615 16.3528 3.78452 15.0564 3.32784C14.9178 3.27889 14.7694 3.2639 14.6238 3.28414C14.4782 3.30438 14.3396 3.35925 14.2196 3.44415C14.0996 3.52906 14.0017 3.64151 13.9341 3.77208C13.8665 3.90264 13.8313 4.04751 13.8313 4.19452Z" fill="#EE9322"/>
</svg>
