<svg width="20" height="16" viewBox="0 0 20 16" fill="none" xmlns="http://www.w3.org/2000/svg">
<mask id="mask0_3194_24823" style="mask-type:luminance" maskUnits="userSpaceOnUse" x="-1" y="0" width="21" height="16">
<path d="M12 0H8.00001C4.22901 0 2.34301 -1.19209e-07 1.17201 1.172C0.328006 2.015 0.0920059 3.229 0.0260059 5.25H19.974C19.908 3.229 19.672 2.015 18.828 1.172C17.657 -1.19209e-07 15.771 0 12 0ZM8.00001 16H12C15.771 16 17.657 16 18.828 14.828C19.999 13.656 20 11.771 20 8C20 7.55867 19.9993 7.142 19.998 6.75H0.00200594C5.93811e-06 7.142 -0.000660822 7.55867 5.84478e-06 8C5.84478e-06 11.771 5.72205e-06 13.657 1.17201 14.828C2.34401 15.999 4.22901 16 8.00001 16Z" fill="white"/>
<path fill-rule="evenodd" clip-rule="evenodd" d="M3.25 12C3.25 11.8011 3.32902 11.6103 3.46967 11.4697C3.61032 11.329 3.80109 11.25 4 11.25H8C8.19891 11.25 8.38968 11.329 8.53033 11.4697C8.67098 11.6103 8.75 11.8011 8.75 12C8.75 12.1989 8.67098 12.3897 8.53033 12.5303C8.38968 12.671 8.19891 12.75 8 12.75H4C3.80109 12.75 3.61032 12.671 3.46967 12.5303C3.32902 12.3897 3.25 12.1989 3.25 12ZM9.75 12C9.75 11.8011 9.82902 11.6103 9.96967 11.4697C10.1103 11.329 10.3011 11.25 10.5 11.25H12C12.1989 11.25 12.3897 11.329 12.5303 11.4697C12.671 11.6103 12.75 11.8011 12.75 12C12.75 12.1989 12.671 12.3897 12.5303 12.5303C12.3897 12.671 12.1989 12.75 12 12.75H10.5C10.3011 12.75 10.1103 12.671 9.96967 12.5303C9.82902 12.3897 9.75 12.1989 9.75 12Z" fill="black"/>
</mask>
<g mask="url(#mask0_3194_24823)">
<path d="M-2 -4H22V20H-2V-4Z" fill="#57A2E4"/>
</g>
</svg>
