<svg width="18" height="22" viewBox="0 0 18 22" fill="none" xmlns="http://www.w3.org/2000/svg">
<path d="M17.7144 5.9609L9.00024 11.0009L0.286133 5.9609C0.465766 5.65176 0.720748 5.39314 1.02731 5.20914L7.94142 1.21739C8.59789 0.846806 9.4026 0.846806 10.0591 1.21739L16.9732 5.20914C17.2802 5.39232 17.5354 5.65173 17.7144 5.9609Z" fill="#AA7950"/>
<path d="M8.99999 11.0009V21.0597C8.6662 21.0588 8.33688 20.9829 8.03646 20.8374L1.05882 16.8032C0.737219 16.6176 0.470096 16.3506 0.284253 16.0291C0.0984099 15.7076 0.000380903 15.3428 0 14.9715V7.03035C0.0017478 6.65522 0.100213 6.28689 0.285882 5.96094L8.99999 11.0009Z" fill="#C28F60"/>
<path d="M18 7.03035V14.9715C17.9996 15.3428 17.9016 15.7076 17.7157 16.0291C17.5299 16.3506 17.2628 16.6176 16.9412 16.8032L9.93176 20.8479C9.64059 20.9856 9.32188 21.0576 9 21.0597V11.0009L17.7141 5.96094C17.8994 6.28705 17.9979 6.65552 18 7.03035Z" fill="#D2A06D"/>
</svg>
