<svg width="25" height="25" viewBox="0 0 25 25" fill="none" xmlns="http://www.w3.org/2000/svg">
<path fill-rule="evenodd" clip-rule="evenodd" d="M3.83398 18.849L11.5053 19.8526C11.281 19.2279 11.1586 18.554 11.1586 17.851C11.1586 16.2314 11.8073 14.7653 12.8559 13.7041C13.9044 12.6432 15.3531 11.9867 16.953 11.9867C18.5529 11.9867 20.002 12.6432 21.0505 13.7041C21.2714 13.928 21.4746 14.17 21.6576 14.427L21.7103 4.40219L10.3469 2.83398L3.83398 5.82466L3.83398 18.849Z" fill="#C28F60"/>
<path fill-rule="evenodd" clip-rule="evenodd" d="M21.7103 4.40219L21.2567 4.70134L16.679 7.59154L3.83398 5.82466L10.3469 2.83398L21.7103 4.40219Z" fill="#AA7950"/>
<path fill-rule="evenodd" clip-rule="evenodd" d="M16.7266 11.992V7.66745L21.7108 4.40332L21.8343 14.6897C21.6085 14.3334 21.3455 14.0032 21.0511 13.7052C20.0025 12.6444 18.5535 11.9878 16.9536 11.9878C16.8778 11.9878 16.802 11.9893 16.7266 11.992Z" fill="#D2A06D"/>
<path fill-rule="evenodd" clip-rule="evenodd" d="M12.6306 3.14941L16.3529 3.66333L11.025 6.88527L11.0216 12.4628L9.12573 11.1558L7.22949 12.2403L7.46633 6.38478L12.6306 3.14941Z" fill="#65472F"/>
<path fill-rule="evenodd" clip-rule="evenodd" d="M16.953 13.2227C19.479 13.2227 21.5264 15.2948 21.5264 17.8513C21.5264 20.4075 19.479 22.4796 16.953 22.4796C14.4273 22.4796 12.3799 20.4075 12.3799 17.8513C12.3799 15.2948 14.4273 13.2227 16.953 13.2227Z" fill="#EF4136"/>
<path fill-rule="evenodd" clip-rule="evenodd" d="M14.9734 16.9994C14.9086 16.9353 14.8487 16.8797 14.8108 16.8245L14.8173 16.8306L15.7426 17.7672L15.7369 17.7725L14.9734 16.9994ZM19.0584 16.3643L19.1296 16.4379C19.3509 16.6592 19.3396 16.7888 19.1311 16.9951L18.2069 17.9302L18.0455 17.7672L18.975 16.826C19.1516 16.6515 19.1868 16.5315 19.0584 16.3643ZM19.0698 18.8146L19.1311 18.8767C19.3396 19.0826 19.3509 19.2123 19.1296 19.4339L18.4559 20.1323C18.2486 20.3486 18.1429 20.2098 17.9746 20.0368L17.05 19.101L16.1197 20.0426C15.9162 20.2539 15.7877 20.2654 15.5691 20.0414L14.879 19.3595C14.8476 19.3285 14.8241 19.3001 14.8066 19.2732L15.413 19.8723C15.632 20.0963 15.7601 20.0848 15.9639 19.8738L16.8939 18.9323L17.8185 19.8681C17.9867 20.0411 18.0925 20.1795 18.2997 19.9632L18.9735 19.2648C19.1543 19.0842 19.18 18.9645 19.0698 18.8146Z" fill="#D13327"/>
<path fill-rule="evenodd" clip-rule="evenodd" d="M14.8178 16.8307C14.6469 16.6604 14.5097 16.5534 14.7235 16.3433L15.4135 15.6618C15.6325 15.4378 15.7606 15.4489 15.9641 15.6602L16.8944 16.6018L17.8191 15.666C17.9873 15.493 18.093 15.3542 18.3003 15.5705L18.9741 16.2689C19.1954 16.4905 19.184 16.6202 18.9756 16.8265L18.046 17.7669L18.9756 18.7077C19.184 18.914 19.1954 19.0436 18.9741 19.2649L18.3003 19.9633C18.093 20.1796 17.9873 20.0412 17.8191 19.8682L16.8944 18.9324L15.9641 19.8739C15.7606 20.0849 15.6325 20.0964 15.4135 19.8724L14.7235 19.1905C14.5097 18.9807 14.6469 18.8737 14.8178 18.7034L15.7432 17.7669L14.8178 16.8307Z" fill="white"/>
</svg>
