<svg width="24" height="24" viewBox="0 0 24 24" fill="none" xmlns="http://www.w3.org/2000/svg">
<path fill-rule="evenodd" clip-rule="evenodd" d="M3 18.3999L10.6714 19.4277C10.447 18.7879 10.3246 18.0979 10.3246 17.378C10.3246 15.7199 10.9734 14.218 12.0219 13.1313C13.0701 12.045 14.5192 11.3727 16.1191 11.3727C17.719 11.3727 19.1681 12.045 20.2166 13.1313C20.4377 13.3609 20.6407 13.6085 20.8237 13.8716L20.8764 3.6059L9.51293 2L3 5.06256V18.3999Z" fill="#C28F60"/>
<path fill-rule="evenodd" clip-rule="evenodd" d="M20.8764 3.6059L20.4228 3.91224L15.8451 6.8719L3 5.06256L9.51293 2L20.8764 3.6059Z" fill="#AA7950"/>
<path fill-rule="evenodd" clip-rule="evenodd" d="M15.8926 11.3765V6.94805L20.8768 3.60547L21.0004 14.1391C20.7745 13.7742 20.5115 13.4365 20.2171 13.1309C19.1686 12.0446 17.7195 11.3722 16.1196 11.3722C16.0438 11.3722 15.968 11.3738 15.8926 11.3765Z" fill="#D2A06D"/>
<path fill-rule="evenodd" clip-rule="evenodd" d="M11.7956 2.32227L15.518 2.84853L10.19 6.14831L10.1866 11.8595L8.29077 10.521L6.39453 11.6317L6.63137 5.63539L11.7956 2.32227Z" fill="#65472F"/>
<path fill-rule="evenodd" clip-rule="evenodd" d="M16.119 12.6377C18.6451 12.6377 20.6925 14.7597 20.6925 17.3776C20.6925 19.9952 18.6451 22.1172 16.119 22.1172C13.5933 22.1172 11.5459 19.9952 11.5459 17.3776C11.5459 14.7597 13.5933 12.6377 16.119 12.6377Z" fill="#3AAF3C"/>
<path d="M18.5362 15.29H18.8795C17.4168 16.9737 16.2829 18.3616 15.2678 20.3913C14.7391 19.2202 14.2677 18.4115 13.2139 17.6618L13.6072 17.5699C14.395 18.2375 14.81 18.9798 15.2678 19.9942C16.2019 18.126 17.2371 16.8017 18.5362 15.29Z" fill="#0DA10D"/>
<path d="M14.3693 16.9937C14.7206 17.2034 14.9494 17.3778 15.2215 17.6889C15.9279 16.5107 16.6945 15.8579 17.6911 14.9315L17.7885 14.8926H18.8795C17.4168 16.5758 16.2829 17.9642 15.2678 19.9938C14.7391 18.8227 14.2677 18.014 13.2139 17.2643L14.3693 16.9937Z" fill="white"/>
</svg>
