<svg width="24" height="24" viewBox="0 0 24 24" fill="none" xmlns="http://www.w3.org/2000/svg">
<path d="M15.7395 15.4133V9.829C15.7395 9.65672 15.8796 9.4873 16.0518 9.4873H17.603C18.3407 9.4873 18.9841 10.0191 19.1635 10.7347L20.1071 12.9185C20.1071 12.9185 21.3545 13.9836 21.3545 14.5512V17.2847H2.63865V15.4133H15.7395Z" fill="#FACB1B"/>
<path d="M15.7395 10.4409V9.829C15.7395 9.65672 15.8796 9.4873 16.0518 9.4873H17.603C18.3407 9.4873 18.9841 10.0191 19.1635 10.7347L20.1071 12.9185C20.1071 12.9185 21.3545 13.9836 21.3545 14.5512V16.0552L15.7395 10.4409Z" fill="#FBE158"/>
<path d="M2.63971 17.5979C2.64008 17.8458 2.73872 18.0834 2.91398 18.2586C3.08925 18.4339 3.32685 18.5325 3.57471 18.5329H21.3548C21.4385 18.5357 21.5219 18.5217 21.6001 18.4916C21.6782 18.4616 21.7495 18.4161 21.8097 18.3579C21.8699 18.2997 21.9178 18.23 21.9505 18.1529C21.9832 18.0758 22 17.9929 22 17.9092C22 17.8255 21.9832 17.7426 21.9505 17.6655C21.9178 17.5884 21.8699 17.5187 21.8097 17.4605C21.7495 17.4023 21.6782 17.3569 21.6001 17.3268C21.5219 17.2967 21.4385 17.2827 21.3548 17.2855H2.63971V17.5979Z" fill="#F3B607"/>
<path d="M20.1064 17.2855H21.3545V15.4141H20.7304C20.6484 15.4138 20.5671 15.4297 20.4913 15.461C20.4154 15.4923 20.3465 15.5382 20.2885 15.5962C20.2305 15.6542 20.1846 15.7231 20.1533 15.799C20.1221 15.8748 20.1061 15.9561 20.1064 16.0381V17.2855Z" fill="#F37A10"/>
<path d="M16.3649 14.167H18.2363V14.7903H16.3642L16.3649 14.167Z" fill="#F3B607"/>
<path d="M5.44704 20.4057C4.86785 20.4057 4.31238 20.1757 3.90284 19.7661C3.49329 19.3566 3.26321 18.8011 3.26321 18.2219C3.26321 17.6427 3.49329 17.0873 3.90284 16.6777C4.31238 16.2682 4.86785 16.0381 5.44704 16.0381C6.02622 16.0381 6.58169 16.2682 6.99123 16.6777C7.40078 17.0873 7.63086 17.6427 7.63086 18.2219C7.63086 18.8011 7.40078 19.3566 6.99123 19.7661C6.58169 20.1757 6.02622 20.4057 5.44704 20.4057Z" fill="#3E3E3F"/>
<path d="M5.4458 19.0947C5.33109 19.0947 5.2175 19.0721 5.11152 19.0282C5.00554 18.9843 4.90924 18.92 4.82813 18.8389C4.74701 18.7577 4.68267 18.6615 4.63877 18.5555C4.59487 18.4495 4.57227 18.3359 4.57227 18.2212C4.57227 18.1065 4.59487 17.9929 4.63877 17.8869C4.68267 17.7809 4.74701 17.6846 4.82813 17.6035C4.90924 17.5224 5.00554 17.458 5.11152 17.4141C5.2175 17.3703 5.33109 17.3477 5.4458 17.3477C5.67748 17.3477 5.89967 17.4397 6.06348 17.6035C6.2273 17.7673 6.31934 17.9895 6.31934 18.2212C6.31934 18.4529 6.2273 18.675 6.06348 18.8389C5.89967 19.0027 5.67748 19.0947 5.4458 19.0947Z" fill="#CFD3D4"/>
<path d="M4.5099 12.9189L5.758 14.1663L7.00539 12.9189L8.25349 14.1663L9.50088 12.9189L10.7483 14.1663L11.9964 12.9197L13.2438 14.167L14.4919 12.9197L15.7393 14.167V15.4152H2.0144V12.9204L3.26251 14.167L4.5099 12.9189Z" fill="#0484AB"/>
<path d="M15.1159 5.12109H2.63846C2.47295 5.12109 2.31422 5.18684 2.19718 5.30387C2.08015 5.42091 2.0144 5.57964 2.0144 5.74515V12.9192L3.26251 14.1666L4.5099 12.9192L5.758 14.1666L7.00539 12.9192L8.25349 14.1666L9.50088 12.9192L10.749 14.1666L11.9964 12.9192L13.2438 14.1666L14.4919 12.9192L15.7393 14.1666V5.74515C15.7393 5.57976 15.6736 5.42114 15.5567 5.30413C15.4399 5.18711 15.2813 5.12128 15.1159 5.12109Z" fill="#059BBF"/>
<path d="M18.2351 20.4057C17.6559 20.4057 17.1005 20.1757 16.6909 19.7661C16.2814 19.3566 16.0513 18.8011 16.0513 18.2219C16.0513 17.6427 16.2814 17.0873 16.6909 16.6777C17.1005 16.2682 17.6559 16.0381 18.2351 16.0381C18.8143 16.0381 19.3698 16.2682 19.7793 16.6777C20.1889 17.0873 20.4189 17.6427 20.4189 18.2219C20.4189 18.8011 20.1889 19.3566 19.7793 19.7661C19.3698 20.1757 18.8143 20.4057 18.2351 20.4057Z" fill="#3E3E3F"/>
<path d="M18.2347 19.0948C18.1179 19.0982 18.0015 19.078 17.8926 19.0356C17.7836 18.9932 17.6843 18.9294 17.6005 18.8479C17.5166 18.7664 17.45 18.6689 17.4045 18.5612C17.3589 18.4536 17.3355 18.3378 17.3355 18.2209C17.3355 18.104 17.3589 17.9883 17.4045 17.8806C17.45 17.7729 17.5166 17.6754 17.6005 17.594C17.6843 17.5125 17.7836 17.4487 17.8926 17.4062C18.0015 17.3638 18.1179 17.3437 18.2347 17.347C18.4622 17.3535 18.6781 17.4485 18.8367 17.6116C18.9953 17.7748 19.084 17.9934 19.084 18.2209C19.084 18.4485 18.9953 18.667 18.8367 18.8302C18.6781 18.9934 18.4622 19.0883 18.2347 19.0948Z" fill="#CFD3D4"/>
<path d="M19.4834 12.9185H16.3639V10.1113H17.7649C18.2353 10.1113 18.4712 10.4673 18.5477 10.7354L19.4834 12.9185Z" fill="#40C9E7"/>
<path d="M16.3646 10.1113H17.7649C18.2353 10.1113 18.4712 10.468 18.5477 10.7354L19.4834 12.9185H18.2181L16.3646 11.0656V10.1113Z" fill="#6FDAF1"/>
<path d="M10.3716 5.12109H15.1159C15.2813 5.12128 15.4399 5.18711 15.5567 5.30413C15.6736 5.42114 15.7393 5.57976 15.7393 5.74515V10.4888L10.3716 5.12109Z" fill="#21B2D1"/>
</svg>
