<svg width="42" height="36" viewBox="0 0 42 36" fill="none" xmlns="http://www.w3.org/2000/svg">
<path opacity="0.98" d="M20.185 18.6732L10.5027 24.2732L0.820312 18.6732C1.01991 18.3297 1.30322 18.0423 1.64384 17.8379L9.32619 13.4026C10.0556 12.9908 10.9497 12.9908 11.6791 13.4026L19.3615 17.8379C19.7027 18.0414 19.9862 18.3296 20.185 18.6732Z" fill="#8D6725"/>
<path d="M10.5029 24.2738V35.4503C10.132 35.4493 9.76614 35.3649 9.43234 35.2032L1.6794 30.7209C1.32206 30.5146 1.02526 30.2179 0.818767 29.8607C0.612274 29.5035 0.503353 29.0982 0.50293 28.6856V19.8621C0.504872 19.4453 0.614277 19.036 0.820577 18.6738L10.5029 24.2738Z" fill="#D59A34"/>
<path d="M20.5029 19.8621V28.6856C20.5025 29.0982 20.3936 29.5035 20.1871 29.8607C19.9806 30.2179 19.6838 30.5146 19.3265 30.7209L11.5382 35.215C11.2147 35.3679 10.8606 35.4479 10.5029 35.4503V24.2738L20.1853 18.6738C20.3912 19.0362 20.5006 19.4456 20.5029 19.8621Z" fill="#C97F00"/>
<path d="M40.4502 0.601562C40.6311 0.602301 40.8089 0.650153 40.9648 0.740234C41.1208 0.830414 41.2495 0.96021 41.3379 1.11523C41.4262 1.27021 41.4711 1.44554 41.4678 1.62305C41.4644 1.80051 41.4134 1.97437 41.3193 2.12598L37.3545 8.49219L41.3604 15.1289C41.4523 15.2811 41.5014 15.4549 41.5029 15.6318C41.5045 15.8087 41.4584 15.983 41.3691 16.1367C41.2799 16.2905 41.1501 16.4189 40.9941 16.5078C40.8384 16.5965 40.6615 16.6435 40.4814 16.6436H8.54688C8.00482 16.6436 7.48485 16.4317 7.10156 16.0557C6.71834 15.6796 6.50293 15.1695 6.50293 14.6377V2.60645C6.50302 2.07475 6.71835 1.56445 7.10156 1.18848C7.48483 0.812555 8.00492 0.601562 8.54688 0.601562H40.4502Z" fill="#FFD500"/>
<path d="M13.025 11.46C13.025 10.2727 13.025 9.07121 13.025 7.85564C13.025 6.64006 13.025 5.43862 13.025 4.25131C13.336 4.25131 13.6469 4.25131 13.9579 4.25131C14.2759 4.25131 14.5869 4.25131 14.8908 4.25131C15.2653 4.92271 15.6434 5.60117 16.0251 6.2867C16.4138 6.97222 16.7954 7.65069 17.17 8.32208C17.17 7.65069 17.17 6.97222 17.17 6.2867C17.17 5.60117 17.17 4.92271 17.17 4.25131C17.4739 4.25131 17.7778 4.25131 18.0817 4.25131C18.3855 4.25131 18.6894 4.25131 18.9933 4.25131C18.9933 5.43862 18.9933 6.64006 18.9933 7.85564C18.9933 9.07121 18.9933 10.2727 18.9933 11.46C18.6894 11.46 18.3785 11.46 18.0605 11.46C17.7495 11.46 17.4385 11.46 17.1276 11.46C16.753 10.7886 16.3714 10.1101 15.9827 9.42458C15.601 8.73905 15.2229 8.06059 14.8484 7.3892C14.8484 8.06059 14.8484 8.73905 14.8484 9.42458C14.8484 10.1101 14.8484 10.7886 14.8484 11.46C14.5445 11.46 14.2406 11.46 13.9367 11.46C13.6328 11.46 13.3289 11.46 13.025 11.46ZM20.3753 11.46C20.3753 10.2727 20.3753 9.07121 20.3753 7.85564C20.3753 6.64006 20.3753 5.43862 20.3753 4.25131C21.0891 4.25131 21.8099 4.25131 22.5379 4.25131C23.2658 4.25131 23.9867 4.25131 24.7005 4.25131C24.7005 4.51987 24.7005 4.7955 24.7005 5.07819C24.7005 5.36088 24.7005 5.6365 24.7005 5.90506C24.2906 5.90506 23.8771 5.90506 23.4601 5.90506C23.0502 5.90506 22.6403 5.90506 22.2304 5.90506C22.2304 6.08174 22.2304 6.25843 22.2304 6.43511C22.2304 6.60473 22.2304 6.77787 22.2304 6.95456C22.605 6.95456 22.9831 6.95456 23.3647 6.95456C23.7464 6.95456 24.1209 6.95456 24.4884 6.95456C24.4884 7.21605 24.4884 7.48107 24.4884 7.74963C24.4884 8.01819 24.4884 8.28674 24.4884 8.5553C24.1209 8.5553 23.7464 8.5553 23.3647 8.5553C22.9831 8.5553 22.605 8.5553 22.2304 8.5553C22.2304 8.76025 22.2304 8.96874 22.2304 9.18076C22.2304 9.39278 22.2304 9.60126 22.2304 9.80621C22.6403 9.80621 23.0502 9.80621 23.4601 9.80621C23.8771 9.80621 24.2906 9.80621 24.7005 9.80621C24.7005 10.0748 24.7005 10.3504 24.7005 10.6331C24.7005 10.9158 24.7005 11.1914 24.7005 11.46C23.9867 11.46 23.2658 11.46 22.5379 11.46C21.8099 11.46 21.0891 11.46 20.3753 11.46ZM27.2799 4.25131C27.4424 4.97925 27.605 5.71778 27.7675 6.46691C27.9301 7.21605 28.0891 7.95811 28.2446 8.69311C28.4071 7.95811 28.5697 7.21605 28.7322 6.46691C28.9018 5.71778 29.0644 4.97925 29.2199 4.25131C29.4955 4.25131 29.7746 4.25131 30.0573 4.25131C30.34 4.25131 30.6192 4.25131 30.8948 4.25131C31.0644 4.97925 31.234 5.71425 31.4037 6.45631C31.5733 7.19838 31.7429 7.93691 31.9125 8.67191C32.075 7.93691 32.2341 7.19838 32.3895 6.45631C32.5521 5.71425 32.7111 4.97925 32.8666 4.25131C33.1493 4.25131 33.432 4.25131 33.7147 4.25131C34.0044 4.25131 34.2906 4.25131 34.5733 4.25131C34.3118 5.43862 34.0504 6.64006 33.7889 7.85564C33.5274 9.07121 33.2659 10.2727 33.0044 11.46C32.6581 11.46 32.3047 11.46 31.9443 11.46C31.5909 11.46 31.2376 11.46 30.8842 11.46C30.7358 10.8027 30.5838 10.1419 30.4284 9.47758C30.2729 8.80619 30.1209 8.14186 29.9725 7.4846C29.8312 8.14186 29.6863 8.80619 29.5379 9.47758C29.3895 10.1419 29.2446 10.8027 29.1032 11.46C28.7569 11.46 28.4071 11.46 28.0538 11.46C27.7075 11.46 27.3612 11.46 27.0149 11.46C26.7534 10.2727 26.4919 9.07121 26.2304 7.85564C25.9689 6.64006 25.7074 5.43862 25.4459 4.25131C25.7498 4.25131 26.0537 4.25131 26.3576 4.25131C26.6686 4.25131 26.976 4.25131 27.2799 4.25131Z" fill="#634600"/>
</svg>
