<svg width="22" height="24" viewBox="0 0 22 24" fill="none" xmlns="http://www.w3.org/2000/svg">
<path fill-rule="evenodd" clip-rule="evenodd" d="M2 18.1892L9.67138 19.1924C9.44704 18.5679 9.32464 17.8944 9.32464 17.1918C9.32464 15.5733 9.9734 14.1074 11.0219 13.0467C12.0705 11.9864 13.5192 11.3301 15.1191 11.3301C16.719 11.3301 18.1681 11.9864 19.2166 13.0467C19.4377 13.2708 19.6407 13.5124 19.8237 13.7693L19.8764 3.74912L8.51294 2.18164L2 5.17094V18.1892Z" fill="#C28F60"/>
<path fill-rule="evenodd" clip-rule="evenodd" d="M19.8764 3.74912L19.4228 4.04813L14.8451 6.93699L2 5.17094L8.51294 2.18164L19.8764 3.74912Z" fill="#AA7950"/>
<path fill-rule="evenodd" clip-rule="evenodd" d="M14.8917 11.3342L14.8447 6.93689L19.876 3.74902L19.9995 14.0306C19.7737 13.6745 19.5107 13.3448 19.2162 13.0466C18.1677 11.9863 16.7186 11.33 15.1187 11.33C15.0429 11.33 14.9671 11.3315 14.8917 11.3342Z" fill="#D2A06D"/>
<path fill-rule="evenodd" clip-rule="evenodd" d="M10.7956 2.49707L14.518 3.01075L9.19005 6.23158L9.18664 11.8061L7.29078 10.4997L5.39453 11.5838L5.63137 5.73094L10.7956 2.49707Z" fill="#65472F"/>
<path fill-rule="evenodd" clip-rule="evenodd" d="M15.119 12.5654C17.6451 12.5654 19.6925 14.6366 19.6925 17.192C19.6925 19.7469 17.6451 21.8181 15.119 21.8181C12.5933 21.8181 10.5459 19.7469 10.5459 17.192C10.5459 14.6366 12.5933 12.5654 15.119 12.5654Z" fill="#FF7900"/>
<path d="M14.2041 15.1193C14.2041 14.7325 14.5141 14.4189 14.8964 14.4189C15.2788 14.4189 15.5888 14.7325 15.5888 15.1193V17.358L17.0572 17.7394C17.4259 17.8345 17.6483 18.214 17.5544 18.5874C17.4604 18.9604 17.0848 19.1858 16.7161 19.0903L14.7873 18.5897C14.4569 18.5368 14.2041 18.2474 14.2041 17.8982V15.1193Z" fill="white"/>
</svg>
