<svg width="24" height="24" viewBox="0 0 24 24" fill="none" xmlns="http://www.w3.org/2000/svg">
<path fill-rule="evenodd" clip-rule="evenodd" d="M3 18.0075L10.6714 19.0107C10.447 18.3863 10.3246 17.7128 10.3246 17.0101C10.3246 15.3912 10.9734 13.9257 12.0219 12.865C13.0705 11.8047 14.5192 11.1484 16.1191 11.1484C17.719 11.1484 19.1681 11.8047 20.2166 12.865C20.4377 13.0891 20.6407 13.3308 20.8237 13.5876L20.8764 3.56748L9.51293 2L3 4.98929V18.0075Z" fill="#C28F60"/>
<path fill-rule="evenodd" clip-rule="evenodd" d="M20.8764 3.56748L20.4228 3.86649L15.8451 6.75534L3 4.98929L9.51293 2L20.8764 3.56748Z" fill="#AA7950"/>
<path fill-rule="evenodd" clip-rule="evenodd" d="M15.8606 11.1551L15.8447 6.75622L20.876 3.56836L20.9995 13.8499C20.7737 13.4938 20.5107 13.1638 20.2162 12.8659C19.1677 11.8056 17.7186 11.1493 16.1187 11.1493C16.0323 11.1493 15.9463 11.1512 15.8606 11.1551Z" fill="#D2A06D"/>
<path fill-rule="evenodd" clip-rule="evenodd" d="M11.7966 2.31543L15.519 2.82911L10.191 6.04955L10.1876 11.6245L8.29175 10.3181L6.39551 11.4021L6.63235 5.54929L11.7966 2.31543Z" fill="#65472F"/>
<path fill-rule="evenodd" clip-rule="evenodd" d="M16.119 12.3838C18.6451 12.3838 20.6925 14.455 20.6925 17.0103C20.6925 19.5653 18.6451 21.6365 16.119 21.6365C13.5933 21.6365 11.5459 19.5653 11.5459 17.0103C11.5459 14.455 13.5933 12.3838 16.119 12.3838Z" fill="black"/>
<path fill-rule="evenodd" clip-rule="evenodd" d="M13.8496 18.9667L14.4809 15.7218L15.1213 16.6974C16.4996 16.1377 17.2734 15.215 17.3886 13.7939C18.5205 15.7965 17.8331 17.5917 16.3984 18.6432L17.0513 19.6384L13.85 18.9667V18.9671L13.8496 18.9667Z" fill="white"/>
</svg>
